<?xml version="1.0" encoding="iso-8859-1"?>
<!-- Generator: Adobe Illustrator 19.0.0, SVG Export Plug-In . SVG Version: 6.00 Build 0)  -->
<svg version="1.1" id="Capa_1" xmlns="http://www.w3.org/2000/svg" xmlns:xlink="http://www.w3.org/1999/xlink" x="0px" y="0px"
	 viewBox="0 0 512 512" style="enable-background:new 0 0 512 512;" xml:space="preserve">
<g>
	<g>
		<path d="M511.321,185.56c-4.45-30.714-31.348-53.913-62.575-53.988h-0.309c-2.364,0.006-4.722,0.156-7.06,0.445V82.433
			c0-23.611-19.21-42.822-42.822-42.822h-285.11c-23.611,0-42.822,19.21-42.822,42.822v49.584c-2.337-0.29-4.695-0.439-7.059-0.445
			c-0.104,0.001-0.206,0.001-0.309,0C32.026,131.647,5.13,154.847,0.679,185.56c-2.37,16.354,1.512,32.692,10.931,46.003
			c7.591,10.726,18.181,18.739,30.359,23.102v152.365c0,5.522,4.477,10,10,10h18.29v45.359c0,5.522,4.477,10,10,10h34.11
			c4.01,0,7.631-2.395,9.202-6.084l20.968-49.275h222.923l20.968,49.275c1.569,3.689,5.191,6.084,9.201,6.084h34.11
			c5.522,0,10-4.478,10-10V417.03h18.289c5.522,0,10-4.478,10-10V254.665c12.178-4.363,22.768-12.377,30.359-23.102
			C509.809,218.251,513.691,201.914,511.321,185.56z M113.445,59.611h285.111c12.584,0,22.821,10.237,22.821,22.821v55.812
			c-0.03,0.015-0.059,0.031-0.089,0.047c-0.103,0.054-0.207,0.108-0.31,0.163c-0.086,0.046-0.171,0.092-0.256,0.138
			c-0.051,0.028-0.103,0.055-0.154,0.083c-0.103,0.056-0.205,0.112-0.307,0.168c-0.034,0.019-0.068,0.037-0.101,0.056
			c-0.137,0.075-0.272,0.151-0.408,0.227c-18.38,10.346-29.799,30.232-29.799,51.899v53.053
			c-31.385-13.224-80.546-21.144-133.953-21.144s-102.569,7.92-133.953,21.144v-53.052c0-1.016-0.025-2.027-0.075-3.034
			c-0.017-0.336-0.036-0.671-0.058-1.005c-0.132-2.007-0.362-3.995-0.687-5.956c-0.054-0.327-0.111-0.653-0.17-0.978
			c-0.178-0.976-0.379-1.945-0.603-2.907c-0.112-0.481-0.23-0.96-0.353-1.437c-0.041-0.159-0.083-0.318-0.125-0.476
			c-0.202-0.755-0.419-1.505-0.649-2.25c-0.023-0.074-0.046-0.148-0.069-0.223c-4.443-14.162-13.975-26.294-27.006-33.631
			c-0.134-0.076-0.269-0.151-0.405-0.226c-0.063-0.035-0.127-0.07-0.191-0.104c-0.074-0.041-0.148-0.082-0.223-0.122
			c-0.034-0.018-0.067-0.036-0.101-0.054c-0.105-0.057-0.21-0.113-0.315-0.169c-0.13-0.069-0.261-0.138-0.392-0.206V82.433h-0.001
			C90.623,69.848,100.861,59.611,113.445,59.611z M389.954,275.707H122.047v-9.584c27.168-14.181,78.675-23.189,133.953-23.189
			c55.277,0,106.785,9.009,133.953,23.189L389.954,275.707L389.954,275.707z M389.954,295.707v24.819H122.047v-24.819H389.954z
			 M107.757,452.389H90.259v-35.359h32.544L107.757,452.389z M421.741,452.389h-17.497l-15.046-35.359h32.544V452.389z
			 M457.898,237.382c-4.593,1.002-7.867,5.068-7.867,9.77V397.03H61.969v-18.128h304.049c5.523,0,10-4.478,10-10s-4.477-10-10-10
			H61.969V247.153c0-4.701-3.274-8.768-7.868-9.77c-22.504-4.912-36.962-25.957-33.629-48.954
			c3.041-20.982,21.472-36.827,42.873-36.858h0.129c6.217,0.009,12.37,1.524,17.872,4.391c0.001,0,0.001,0.001,0.002,0.001
			c0.084,0.044,0.168,0.088,0.252,0.132c0.017,0.009,0.033,0.018,0.05,0.027c0.076,0.04,0.151,0.081,0.226,0.121
			c0.025,0.014,0.05,0.027,0.075,0.041c0.071,0.039,0.143,0.078,0.214,0.117c0.018,0.01,0.035,0.02,0.052,0.029
			c0.074,0.041,0.148,0.082,0.223,0.124c0.284,0.16,0.564,0.323,0.843,0.489c9.651,5.773,16.233,15.691,18.172,26.989
			c0.037,0.217,0.073,0.435,0.107,0.653c0.068,0.437,0.128,0.875,0.182,1.315c0.108,0.881,0.187,1.768,0.238,2.662
			c0.013,0.223,0.024,0.447,0.033,0.671c0.023,0.561,0.034,1.123,0.034,1.688v139.502c0,5.523,4.477,10,10,10h287.907
			c5.522,0,10-4.477,10-10V191.022c0-2.258,0.183-4.487,0.539-6.664c0.071-0.436,0.149-0.869,0.234-1.301
			c0.042-0.216,0.086-0.431,0.132-0.645c2.336-10.945,9.065-20.434,18.705-25.86c0.105-0.059,0.21-0.118,0.315-0.176
			c0.009-0.005,0.018-0.01,0.027-0.015c0.091-0.05,0.182-0.1,0.274-0.149c0.025-0.013,0.051-0.027,0.076-0.041
			c0.075-0.04,0.149-0.08,0.224-0.119c0.035-0.018,0.069-0.036,0.104-0.055c0.061-0.032,0.123-0.064,0.184-0.096
			c0.046-0.024,0.092-0.048,0.139-0.072c0.037-0.019,0.074-0.038,0.112-0.057c5.408-2.745,11.426-4.194,17.506-4.203h0.13
			c21.399,0.03,39.83,15.875,42.871,36.858C494.86,211.425,480.403,232.47,457.898,237.382z"/>
	</g>
</g>
<g>
	<g>
		<path d="M413.464,366.953c-0.131-0.641-0.322-1.271-0.572-1.881c-0.25-0.6-0.56-1.18-0.92-1.72c-0.37-0.55-0.79-1.06-1.25-1.52
			c-0.46-0.46-0.97-0.88-1.52-1.25c-0.54-0.36-1.12-0.67-1.721-0.91c-0.609-0.25-1.23-0.45-1.87-0.57c-1.3-0.26-2.619-0.26-3.909,0
			c-0.641,0.12-1.271,0.32-1.87,0.57c-0.601,0.24-1.19,0.55-1.73,0.91c-0.55,0.37-1.06,0.79-1.52,1.25
			c-0.46,0.46-0.88,0.97-1.24,1.52c-0.36,0.54-0.67,1.12-0.92,1.72c-0.25,0.61-0.44,1.24-0.57,1.881c-0.13,0.64-0.2,1.3-0.2,1.949
			c0,2.631,1.07,5.21,2.931,7.07c0.46,0.46,0.97,0.88,1.52,1.24c0.54,0.359,1.13,0.67,1.73,0.92c0.6,0.25,1.229,0.45,1.87,0.57
			c0.64,0.13,1.3,0.199,1.949,0.199c0.66,0,1.311-0.069,1.96-0.199c0.641-0.12,1.261-0.32,1.87-0.57
			c0.601-0.25,1.181-0.561,1.721-0.92c0.55-0.36,1.06-0.78,1.52-1.24c1.87-1.86,2.93-4.439,2.93-7.07
			C413.653,368.253,413.593,367.592,413.464,366.953z"/>
	</g>
</g>
<g>
</g>
<g>
</g>
<g>
</g>
<g>
</g>
<g>
</g>
<g>
</g>
<g>
</g>
<g>
</g>
<g>
</g>
<g>
</g>
<g>
</g>
<g>
</g>
<g>
</g>
<g>
</g>
<g>
</g>
</svg>
