<?xml version="1.0"?>
<svg xmlns="http://www.w3.org/2000/svg" viewBox="0 0 64 64" width="512" height="512"><g id="Cafe-coffee-machine-shop"><path d="M59,20a3,3,0,0,0,3-3V5a3,3,0,0,0-3-3H5A3,3,0,0,0,2,5V17a3,3,0,0,0,3,3H7V57H3a1,1,0,0,0-1,1v3a1,1,0,0,0,1,1H61a1,1,0,0,0,1-1V58a1,1,0,0,0-1-1H57V30h4a1,1,0,0,0,1-1V23a1,1,0,0,0-1-1H57V20ZM4,17V5A1,1,0,0,1,5,4H59a1,1,0,0,1,1,1V17a1,1,0,0,1-1,1H5A1,1,0,0,1,4,17ZM45,27H43V25h2Zm-4,5a1,1,0,0,1-1,1H24a1,1,0,0,1-1-1V30h9a1,1,0,0,0,1-1V22a1,1,0,0,0-1-1H23V20H41ZM31,35h2v2H31ZM23,23h8v5H23ZM60,60H4V59H60ZM25,50V48.356A9.913,9.913,0,0,0,28.75,49a10.093,10.093,0,0,0,4.785-1.09A8.1,8.1,0,0,1,37.5,47a9.63,9.63,0,0,1,1.5.117V50a7,7,0,0,1-14,0Zm19-3a4,4,0,0,1-3.044,3.872c.028-.287.044-.578.044-.872V43.142A4,4,0,0,1,44,47Zm-5-1.916A12.537,12.537,0,0,0,37.5,45a10.123,10.123,0,0,0-4.8,1.091A8.074,8.074,0,0,1,28.75,47,7.888,7.888,0,0,1,25,46.186V43H39ZM55,57H37.644a9.032,9.032,0,0,0,2.84-4.024A6,6,0,0,0,40,41H24a1,1,0,0,0-1,1v8a8.983,8.983,0,0,0,3.356,7H9V20H21V32a3,3,0,0,0,3,3h5v3a1,1,0,0,0,1,1h4a1,1,0,0,0,1-1V35h5a3,3,0,0,0,3-3V29h2a1,1,0,0,0,1,1h9Zm5-29H47V24H60Zm-5-6H46a1,1,0,0,0-1,1H43V20H55Z"/><path d="M32,17a6,6,0,1,0-6-6A6.006,6.006,0,0,0,32,17ZM32,7a4,4,0,1,1-4,4A4,4,0,0,1,32,7Z"/><path d="M23,14V8a1,1,0,0,0-1-1H10A1,1,0,0,0,9,8v6a1,1,0,0,0,1,1H22A1,1,0,0,0,23,14Zm-2-1H11V9H21Z"/></g></svg>
